<svg width="50" height="50" viewBox="0 0 50 50" fill="none" xmlns="http://www.w3.org/2000/svg">
<circle cx="25" cy="25" r="24.5" fill="#F0F0F0" stroke="#696969"/>
<path d="M25 10C16.7293 10 10 16.7314 10 25.0021C10 33.2717 16.7283 40 25 40C33.2717 40 40 33.2717 40 25.0021C40 16.7314 33.2707 10 25 10ZM25 11.5259C28.3114 11.5259 31.3466 12.7269 33.6948 14.7152C33.6772 14.7369 33.6607 14.7617 33.6452 14.7845C33.6297 14.8083 32.2217 17.0314 28.8276 19.1231C28.0879 19.5772 27.2148 20.0479 26.2031 20.4959C24.0586 16.3703 21.701 13.5431 20.5466 12.2841C21.941 11.7938 23.44 11.5259 25 11.5259ZM19.0455 12.9152C19.87 13.7779 22.4593 16.66 24.7797 21.0721C21.5997 22.2493 17.2962 23.1152 11.6976 22.84C12.4041 18.4755 15.2128 14.8103 19.0455 12.9152ZM15.3059 34.3538C12.9659 31.9259 11.5238 28.63 11.5238 25.0021C11.5238 24.7859 11.5279 24.5717 11.5393 24.3586C12.3017 24.399 13.0403 24.4166 13.7583 24.4166C18.6514 24.4166 22.5152 23.5559 25.4666 22.4448C25.6993 22.931 25.9259 23.4348 26.1462 23.9552C26.3066 24.3297 26.4607 24.7072 26.6076 25.0807C21.3762 26.5652 17.4803 29.7441 15.3307 34.2928C15.3224 34.3145 15.3141 34.3321 15.3059 34.3538ZM25 38.4762C21.7031 38.4762 18.6793 37.2855 16.3352 35.3117C16.4945 35.2403 16.63 35.1141 16.7107 34.9455C18.6834 30.7672 22.2928 27.8552 27.1528 26.5103C29.2 32.1472 29.8662 36.9007 29.95 37.5348C28.4169 38.1431 26.7462 38.4762 25 38.4762ZM31.3952 36.8603C31.1748 35.3686 30.4476 31.1541 28.6528 26.1731C32.8538 25.4428 37.2752 26.3397 38.3821 26.5921C37.8566 31.0331 35.1638 34.8203 31.3952 36.8603ZM28.1066 24.7217C27.9297 24.2686 27.7434 23.8166 27.55 23.3583C27.3328 22.8441 27.1072 22.3455 26.8797 21.8645C27.9752 21.3762 28.9186 20.8621 29.7162 20.3666C32.8331 18.4269 34.3828 16.4024 34.8152 15.7786C37.0828 18.19 38.4762 21.4362 38.4762 25.0021C38.4762 25.0186 38.4752 25.0331 38.4752 25.0497C36.9286 24.7103 32.4431 23.8931 28.1066 24.7217Z" fill="#1C1C1C"/>
</svg>
