<svg width="50" height="50" viewBox="0 0 50 50" fill="none" xmlns="http://www.w3.org/2000/svg">
<circle cx="25" cy="25" r="24.5" fill="#F0F0F0" stroke="#696969"/>
<path d="M35.807 14.9641L35.8037 14.9729L35.8098 14.98C36.939 16.2788 37.6193 17.9368 37.6193 19.9647C37.6193 23.5374 36.5887 25.7138 35.0698 27.0549C33.5503 28.3965 31.5397 28.9043 29.5748 29.1342L29.5406 29.1382L29.5661 29.1613C29.6461 29.2337 29.7514 29.3155 29.8738 29.4094C29.8876 29.42 29.9017 29.4308 29.9159 29.4417C30.0281 29.5277 30.1536 29.6238 30.287 29.7323C30.5877 29.9768 30.9289 30.2838 31.2501 30.6783C31.8924 31.467 32.456 32.6061 32.456 34.2947C32.456 34.983 32.451 36.4092 32.446 37.6634C32.4435 38.2905 32.441 38.8745 32.4391 39.3018L32.4369 39.811L32.4362 39.9507L32.4361 39.9841H20.3239C20.3241 39.887 20.326 39.7219 20.3283 39.5202C20.3316 39.2341 20.3357 38.8742 20.337 38.5306C20.3382 38.2312 20.3372 37.9444 20.3316 37.7301C20.3289 37.623 20.325 37.5338 20.3196 37.4702C20.3169 37.4384 20.3138 37.4126 20.3102 37.3939C20.3084 37.3847 20.3064 37.3766 20.304 37.3703C20.3028 37.3671 20.3014 37.3639 20.2995 37.3611C20.2978 37.3584 20.295 37.3548 20.2904 37.3525L20.2932 37.3471L20.2788 37.3514C16.9081 38.3679 15.0035 37.7439 13.9418 36.87C13.4105 36.4327 13.0892 35.932 12.9007 35.5406C12.8065 35.345 12.7455 35.1767 12.7081 35.0574C12.6894 34.9978 12.6766 34.9504 12.6685 34.918C12.6644 34.9018 12.6615 34.8893 12.6596 34.8809L12.6576 34.8715L12.6571 34.8691L12.657 34.8685L12.657 34.8684L12.6572 34.8683L12.6563 34.8659C12.2539 33.789 11.7628 33.1064 11.3717 32.6927C11.1762 32.4859 11.0058 32.3464 10.8841 32.2586C10.8232 32.2146 10.7745 32.1836 10.7409 32.1635C10.7241 32.1534 10.7111 32.1461 10.7023 32.1413L10.6922 32.1359L10.6898 32.1347C10.2902 31.8464 10.1013 31.6338 10.0394 31.4782C10.0088 31.401 10.0098 31.3389 10.0307 31.2884C10.0518 31.2375 10.0939 31.1961 10.1499 31.1625C10.2622 31.095 10.4247 31.0621 10.5609 31.0463C10.6286 31.0384 10.6893 31.0349 10.7329 31.0333C10.7548 31.0325 10.7724 31.0321 10.7845 31.032L10.7984 31.032L10.8019 31.032L10.8027 31.032C11.683 31.0976 12.3553 31.5743 12.8082 32.0359C13.0346 32.2666 13.2058 32.4933 13.3204 32.6623C13.3777 32.7467 13.4209 32.8168 13.4497 32.8656C13.4641 32.89 13.4749 32.9092 13.4821 32.9222L13.4901 32.937L13.4921 32.9407L13.4926 32.9417L13.4927 32.9419L13.4928 32.9419L13.5066 32.9347L13.4928 32.9419L13.493 32.9423C14.2847 34.3724 15.7494 34.7192 17.1378 34.6501C18.5263 34.581 19.8429 34.0961 20.3466 33.8572L20.3556 33.8529V33.843C20.3556 32.3816 21.0572 31.2155 21.76 30.4142C22.1114 30.0136 22.4627 29.7044 22.7262 29.4954C22.858 29.391 22.9677 29.3115 23.0445 29.2583C23.0829 29.2316 23.113 29.2115 23.1335 29.1981L23.1569 29.183L23.1629 29.1792L23.1644 29.1783L23.1647 29.1781L23.1648 29.178L23.1566 29.1647L23.1649 29.178L23.2028 29.1545L23.1585 29.1492C21.2003 28.9143 19.1947 28.3982 17.6785 27.0518C16.1629 25.7059 15.1339 23.5282 15.1339 19.9647C15.1339 17.9369 15.8192 16.2788 16.9468 14.98L16.9529 14.9729L16.9495 14.9641C16.7689 14.4951 16.1642 12.6091 17.1202 10.0558L17.1297 10.0531C17.1411 10.0501 17.1583 10.046 17.1815 10.0416C17.2279 10.0328 17.2982 10.0227 17.3932 10.0182C17.5834 10.009 17.8725 10.0216 18.2672 10.1093C19.0565 10.2848 20.268 10.7608 21.9525 11.9641L21.9469 11.972L21.966 11.9664C23.3712 11.5535 24.8797 11.347 26.3783 11.3403C27.8769 11.347 29.3854 11.5535 30.7922 11.9664L30.7895 11.9757L30.8057 11.9641C32.4895 10.7608 33.7001 10.2848 34.4888 10.1093C34.8831 10.0216 35.172 10.009 35.362 10.0182C35.4569 10.0227 35.5272 10.0328 35.5735 10.0416C35.5967 10.046 35.6139 10.0501 35.6252 10.0531L35.6347 10.0558C36.5908 12.6091 35.9877 14.4951 35.807 14.9641Z" fill="#1C1C1C" stroke="#1C1C1C" stroke-width="0.03125"/>
</svg>
