<svg width="50" height="50" viewBox="0 0 50 50" fill="none" xmlns="http://www.w3.org/2000/svg">
<circle cx="25" cy="25" r="24.5" fill="#F0F0F0" stroke="#696969"/>
<path fill-rule="evenodd" clip-rule="evenodd" d="M18.8045 10.1841C16.3627 10.2943 14.2462 10.8913 12.5372 12.593C10.8223 14.3037 10.2327 16.4285 10.1223 18.845C10.0536 20.3532 9.65213 31.7474 10.8163 34.7355C11.6014 36.7514 13.1477 38.3014 15.182 39.089C16.1313 39.4583 17.2149 39.7082 18.8045 39.7812C32.0957 40.3827 37.0226 40.0552 39.1003 34.7355C39.4689 33.7886 39.7227 32.7059 39.7928 31.1203C40.4003 17.795 39.6943 14.9067 37.3779 12.593C35.5405 10.7602 33.3793 9.51262 18.8045 10.1841ZM18.9268 37.1012C17.4716 37.0357 16.682 36.7932 16.1552 36.5893C14.8298 36.0741 13.8343 35.0827 13.3223 33.7651C12.4357 31.4946 12.7298 20.7107 12.8089 18.9658C12.8865 17.2566 13.2328 15.6945 14.4387 14.4885C15.9313 12.9997 17.8597 12.27 30.9897 12.8626C32.7032 12.94 34.2689 13.2855 35.4778 14.4885C36.9704 15.9774 37.7107 17.9206 37.1077 31.0002C37.042 32.4518 36.7988 33.2395 36.5943 33.7651C35.2435 37.2266 32.136 37.7072 18.9268 37.1012ZM31.1345 17.0344C31.1345 18.02 31.936 18.8215 32.9256 18.8215C33.9151 18.8215 34.7181 18.02 34.7181 17.0344C34.7181 16.0488 33.9151 15.248 32.9256 15.248C31.936 15.248 31.1345 16.0488 31.1345 17.0344ZM17.294 24.9819C17.294 29.2043 20.7254 32.6276 24.9583 32.6276C29.1912 32.6276 32.6226 29.2043 32.6226 24.9819C32.6226 20.7595 29.1912 17.3384 24.9583 17.3384C20.7254 17.3384 17.294 20.7595 17.294 24.9819ZM19.9836 24.9819C19.9836 22.2424 22.2105 20.0198 24.9583 20.0198C27.7061 20.0198 29.933 22.2424 29.933 24.9819C29.933 27.7229 27.7061 29.9462 24.9583 29.9462C22.2105 29.9462 19.9836 27.7229 19.9836 24.9819Z" fill="#1C1C1C"/>
</svg>
