<svg width="25" height="25" viewBox="0 0 25 25" fill="none" xmlns="http://www.w3.org/2000/svg">
<path fill-rule="evenodd" clip-rule="evenodd" d="M12.5 5.46954C8.6168 5.46954 5.46875 8.61759 5.46875 12.5008C5.46875 16.384 8.6168 19.532 12.5 19.532C16.3832 19.532 19.5312 16.384 19.5312 12.5008C19.5312 8.61759 16.3832 5.46954 12.5 5.46954ZM12.5 18.7508C9.04805 18.7508 6.25 15.9524 6.25 12.5008C6.25 9.04923 9.04805 6.25079 12.5 6.25079C15.952 6.25079 18.75 9.04923 18.75 12.5008C18.75 15.9524 15.952 18.7508 12.5 18.7508Z" fill="#F1F1F1"/>
<path fill-rule="evenodd" clip-rule="evenodd" d="M12.5 7.81329C12.284 7.81329 12.1094 7.9879 12.1094 8.20392C12.1094 8.41993 12.284 8.59454 12.5 8.59454C14.657 8.59454 16.4062 10.3434 16.4062 12.5008C16.4062 12.7168 16.5809 12.8914 16.7969 12.8914C17.0129 12.8914 17.1875 12.7168 17.1875 12.5008C17.1875 9.91212 15.0887 7.81329 12.5 7.81329Z" fill="#F1F1F1"/>
<path fill-rule="evenodd" clip-rule="evenodd" d="M24.6094 12.1094H20.7031C20.4871 12.1094 20.3125 12.284 20.3125 12.5C20.3125 12.716 20.4871 12.8906 20.7031 12.8906H24.6094C24.8254 12.8906 25 12.716 25 12.5C25 12.284 24.8254 12.1094 24.6094 12.1094Z" fill="#F1F1F1"/>
<path fill-rule="evenodd" clip-rule="evenodd" d="M4.47542 14.2461L2.96643 14.6504C2.75784 14.7066 2.63401 14.9207 2.69026 15.1293C2.74612 15.3375 2.95979 15.4613 3.16878 15.4051L4.67776 15.0008C4.88597 14.9449 5.00979 14.7312 4.95393 14.5222C4.89807 14.314 4.68362 14.1902 4.47542 14.2461Z" fill="#F1F1F1"/>
<path fill-rule="evenodd" clip-rule="evenodd" d="M19.2656 8.59373C19.3738 8.78084 19.6125 8.8449 19.7996 8.73669L23.1824 6.78357C23.3695 6.67576 23.4336 6.43669 23.325 6.24998C23.2176 6.06287 22.9785 5.99919 22.7918 6.1074L19.409 8.06052C19.2219 8.16873 19.1582 8.40662 19.2656 8.59373Z" fill="#F1F1F1"/>
<path fill-rule="evenodd" clip-rule="evenodd" d="M6.97576 18.0246C6.82342 17.8719 6.57615 17.8726 6.42342 18.0246L5.31873 19.1293C5.166 19.282 5.16639 19.5297 5.31912 19.682C5.47147 19.8348 5.71834 19.8344 5.87108 19.6816L6.97576 18.5769C7.1285 18.425 7.1285 18.1773 6.97576 18.0246Z" fill="#F1F1F1"/>
<path fill-rule="evenodd" clip-rule="evenodd" d="M16.4062 5.73437C16.5933 5.84218 16.832 5.77851 16.9402 5.5914L18.8933 2.20859C19.0015 2.02148 18.9375 1.78242 18.75 1.67461C18.5633 1.56679 18.325 1.63086 18.2168 1.81757L16.264 5.20078C16.1555 5.38789 16.2195 5.62617 16.4062 5.73437Z" fill="#F1F1F1"/>
<path fill-rule="evenodd" clip-rule="evenodd" d="M10.4781 20.0461C10.2703 19.9903 10.0563 20.1149 9.99962 20.3223L9.59532 21.8313C9.53946 22.0403 9.66407 22.2543 9.87227 22.3102C10.0805 22.3664 10.2941 22.2426 10.35 22.0336L10.7543 20.5246C10.8109 20.3172 10.6871 20.1028 10.4781 20.0461Z" fill="#F1F1F1"/>
<path fill-rule="evenodd" clip-rule="evenodd" d="M12.5 4.6875C12.7164 4.6875 12.891 4.51328 12.8914 4.29688V0.390625C12.8914 0.174609 12.7168 0 12.5 0C12.2847 0 12.1101 0.174609 12.1097 0.390625L12.1101 4.29688C12.1101 4.51289 12.2847 4.6875 12.5 4.6875Z" fill="#F1F1F1"/>
<path fill-rule="evenodd" clip-rule="evenodd" d="M15.0008 20.3223C14.9458 20.1145 14.7317 19.9902 14.5223 20.0461C14.3141 20.102 14.1911 20.3164 14.2461 20.5246L14.6504 22.0336C14.7067 22.2426 14.9211 22.3656 15.1297 22.3098C15.3383 22.2539 15.4614 22.0406 15.4051 21.8313L15.0008 20.3223Z" fill="#F1F1F1"/>
<path fill-rule="evenodd" clip-rule="evenodd" d="M8.06133 5.59065C8.16875 5.77776 8.40781 5.84182 8.59375 5.73401C8.78125 5.62581 8.8457 5.38752 8.7375 5.20002L6.78437 1.81721C6.67656 1.63049 6.4375 1.56643 6.25 1.67463C6.06367 1.78206 5.99961 2.02112 6.10742 2.20784L8.06133 5.59065Z" fill="#F1F1F1"/>
<path fill-rule="evenodd" clip-rule="evenodd" d="M18.5773 18.0242C18.4258 17.8719 18.1781 17.8719 18.025 18.0242C17.8722 18.1766 17.8734 18.4242 18.025 18.5766L19.1297 19.6813C19.2828 19.8344 19.53 19.8332 19.6824 19.6809C19.8351 19.5285 19.8351 19.282 19.682 19.1289L18.5773 18.0242Z" fill="#F1F1F1"/>
<path fill-rule="evenodd" clip-rule="evenodd" d="M1.81798 6.78324L5.20157 8.73597C5.3879 8.84378 5.62657 8.78011 5.73399 8.59378C5.8422 8.40667 5.77891 8.168 5.5918 8.0598L2.2086 6.10667C2.02188 5.99847 1.78282 6.06253 1.67462 6.25003C1.56759 6.43636 1.63126 6.67542 1.81798 6.78324Z" fill="#F1F1F1"/>
<path fill-rule="evenodd" clip-rule="evenodd" d="M20.323 15L21.832 15.4043C22.041 15.461 22.2547 15.3356 22.3105 15.1274C22.3668 14.9195 22.2433 14.7059 22.0343 14.6496L20.5254 14.2453C20.3179 14.1887 20.1031 14.3129 20.0468 14.5215C19.9906 14.7301 20.1156 14.9438 20.323 15Z" fill="#F1F1F1"/>
<path fill-rule="evenodd" clip-rule="evenodd" d="M4.6875 12.5C4.68789 12.2836 4.51367 12.1094 4.29766 12.1086L0.390625 12.1094C0.175 12.1094 0 12.2832 0 12.5C0.000390625 12.7152 0.175 12.8906 0.391016 12.8906L4.29766 12.8898C4.51289 12.8898 4.68789 12.7156 4.6875 12.5Z" fill="#F1F1F1"/>
<path fill-rule="evenodd" clip-rule="evenodd" d="M20.5254 10.7535L22.0344 10.3492C22.2434 10.2934 22.3664 10.0785 22.3102 9.86992C22.2547 9.66249 22.0414 9.53867 21.832 9.59452L20.3231 9.99882C20.1149 10.0539 19.991 10.2687 20.0469 10.4773C20.102 10.6859 20.3172 10.8086 20.5254 10.7535Z" fill="#F1F1F1"/>
<path fill-rule="evenodd" clip-rule="evenodd" d="M5.73442 16.4063C5.62699 16.2188 5.38832 16.1547 5.20121 16.2625L1.81801 18.2164C1.63129 18.3242 1.56645 18.5625 1.67465 18.75C1.78285 18.9364 2.02191 19.0004 2.20863 18.8926L5.59145 16.9387C5.77777 16.8313 5.84262 16.5934 5.73442 16.4063Z" fill="#F1F1F1"/>
<path fill-rule="evenodd" clip-rule="evenodd" d="M18.025 6.97502C18.177 7.12815 18.4242 7.12659 18.5774 6.97502L19.682 5.87034C19.8352 5.71721 19.8344 5.47034 19.6813 5.3176C19.5297 5.16526 19.2824 5.16487 19.1297 5.31799L18.025 6.42268C17.8719 6.57424 17.8727 6.82268 18.025 6.97502Z" fill="#F1F1F1"/>
<path fill-rule="evenodd" clip-rule="evenodd" d="M8.59377 19.2656C8.40666 19.1574 8.16877 19.2214 8.06057 19.4078L6.10744 22.7918C6.00002 22.9785 6.06252 23.2168 6.25002 23.325C6.43713 23.432 6.6758 23.3679 6.784 23.1816L8.73635 19.798C8.84416 19.6121 8.78127 19.3738 8.59377 19.2656Z" fill="#F1F1F1"/>
<path fill-rule="evenodd" clip-rule="evenodd" d="M14.5227 4.95317C14.7301 5.00981 14.9438 4.88442 15.0012 4.67699L15.4055 3.16801C15.4613 2.95903 15.3367 2.74496 15.1285 2.6895C14.9211 2.63325 14.7066 2.75668 14.6508 2.96567L14.2465 4.47465C14.1891 4.68207 14.3145 4.89692 14.5227 4.95317Z" fill="#F1F1F1"/>
<path fill-rule="evenodd" clip-rule="evenodd" d="M12.5 20.3125C12.284 20.3117 12.1102 20.4867 12.1094 20.7023L12.1102 24.6102C12.1102 24.825 12.2832 25 12.5 25C12.716 25 12.8906 24.8246 12.891 24.6094L12.8898 20.7023C12.8898 20.4871 12.7168 20.3125 12.5 20.3125Z" fill="#F1F1F1"/>
<path fill-rule="evenodd" clip-rule="evenodd" d="M9.99997 4.67695C10.0543 4.88515 10.2699 5.00898 10.4785 4.95312C10.6863 4.89804 10.809 4.6832 10.7547 4.47461L10.3504 2.96562C10.2937 2.75664 10.0797 2.6332 9.87107 2.68984C9.66365 2.74531 9.53904 2.95859 9.59568 3.16797L9.99997 4.67695Z" fill="#F1F1F1"/>
<path fill-rule="evenodd" clip-rule="evenodd" d="M16.9387 19.409C16.8313 19.2223 16.5938 19.1574 16.4063 19.2664C16.2192 19.3734 16.1559 19.6121 16.2629 19.7992L18.2176 23.1824C18.325 23.3691 18.5625 23.434 18.75 23.3254C18.9371 23.2172 19.0008 22.9781 18.8934 22.7914L16.9387 19.409Z" fill="#F1F1F1"/>
<path fill-rule="evenodd" clip-rule="evenodd" d="M6.42304 6.97504C6.57421 7.12894 6.82265 7.12738 6.97538 6.97504C7.12812 6.82348 7.12656 6.57621 6.97538 6.42269L5.8707 5.31801C5.71718 5.16488 5.47031 5.16566 5.31796 5.31879C5.16562 5.47035 5.16484 5.71762 5.31835 5.87035L6.42304 6.97504Z" fill="#F1F1F1"/>
<path fill-rule="evenodd" clip-rule="evenodd" d="M23.1828 18.216L19.7988 16.2641C19.6121 16.1562 19.3742 16.2187 19.2664 16.407C19.1578 16.5934 19.2226 16.8312 19.4086 16.9398L22.7929 18.8926C22.9793 19 23.2172 18.9375 23.3254 18.75C23.4328 18.5629 23.3687 18.3242 23.1828 18.216Z" fill="#F1F1F1"/>
<path fill-rule="evenodd" clip-rule="evenodd" d="M4.67735 9.99962L3.16798 9.59493C2.9586 9.53868 2.74493 9.66329 2.68946 9.8715C2.63321 10.0789 2.75626 10.2934 2.96563 10.35L4.47462 10.7539C4.68204 10.8109 4.89688 10.6856 4.95313 10.4777C5.00977 10.2707 4.88477 10.057 4.67735 9.99962Z" fill="#F1F1F1"/>
</svg>
