<svg width="50" height="50" viewBox="0 0 50 50" fill="none" xmlns="http://www.w3.org/2000/svg">
<circle cx="25" cy="25" r="24.5" fill="#F0F0F0" stroke="#696969"/>
<path fill-rule="evenodd" clip-rule="evenodd" d="M17.8104 38.9999V18.758H11.3801V38.9999H17.8104V38.9999ZM14.596 15.9954C16.8376 15.9954 18.234 14.4397 18.234 12.4973C18.1916 10.5117 16.8376 9 14.638 9C12.438 9.00006 11 10.5118 11 12.4974C11 14.4398 12.3956 15.9954 14.5536 15.9954L14.596 15.9954ZM21.3693 38.9999C21.3693 38.9999 21.4537 20.6573 21.3693 18.7581H27.8006V21.6936H27.7579C28.6036 20.3123 30.1271 18.2828 33.5959 18.2828C37.8279 18.2828 41 21.1758 41 27.3934V39H34.5698V28.1712C34.5698 25.4502 33.6394 23.5935 31.3116 23.5935C29.5355 23.5935 28.4769 24.8452 28.0121 26.0552C27.842 26.4859 27.8006 27.0908 27.8006 27.6958V38.9999H21.3693Z" fill="#1C1C1C"/>
</svg>
