<svg width="17" height="20" viewBox="0 0 17 20" fill="none" xmlns="http://www.w3.org/2000/svg">
<path d="M15.9708 5.5C15.9061 3.81493 15.6972 2.78177 15.0237 2.05441C14.0474 1 12.476 1 9.33333 1H7.66667C4.52397 1 2.95262 1 1.97631 2.05441C1 3.10883 1 4.80588 1 8.2V11.8C1 15.1941 1 16.8912 1.97631 17.9456C2.95262 19 4.52397 19 7.66667 19H9.33333C12.476 19 14.0474 19 15.0237 17.9456C16 16.8912 16 15.1941 16 11.8V9.1" stroke="#696969" stroke-width="0.7" stroke-linecap="round"/>
<path d="M3.5 10C3.5 8.72723 3.5 8.09082 3.86612 7.69542C4.23223 7.30001 4.82149 7.30001 6 7.30001H11C12.1785 7.30001 12.7677 7.30001 13.1339 7.69542C13.5 8.09082 13.5 8.72723 13.5 10V13.6C13.5 14.8728 13.5 15.5092 13.1339 15.9046C12.7677 16.3 12.1785 16.3 11 16.3H6C4.82149 16.3 4.23223 16.3 3.86612 15.9046C3.5 15.5092 3.5 14.8728 3.5 13.6V10Z" stroke="#696969" stroke-width="0.7"/>
<path d="M4.33334 4.6H8.50001" stroke="#696969" stroke-width="0.7" stroke-linecap="round"/>
</svg>
